<svg id="Capa_1" enable-background="new 0 0 512 512" height="512" viewBox="0 0 512 512" width="512" xmlns="http://www.w3.org/2000/svg"><g><path d="m473.92 222.538c8.907-70.069-10.871-138.328-55.689-192.202-11.317-13.602-31.956-14.76-44.553-2.164l-20.66 20.66c-33.683-30.338-78.233-48.832-127.026-48.832-111.183 0-190 91.234-190 190 0 47.228 17.457 92.192 48.832 127.026l-20.661 20.661c-12.586 12.586-11.446 33.226 2.165 44.552 39.449 32.818 86.611 52.2 136.548 56.735l-55.956 55.956c-2.86 2.86-3.715 7.161-2.167 10.898 1.548 3.736 5.194 6.173 9.239 6.173h144c4.045 0 7.691-2.437 9.239-6.173 1.548-3.737.691-8.038-2.168-10.898l-55.98-55.979c117.091-10.611 210.414-102.949 224.837-216.413zm-237.928 77.462h-20c-11.028 0-20-8.972-20-20s8.972-20 20-20h80c22.056 0 40-17.944 40-40 0-11.028 8.972-20 20-20.01h39.698c-4.241 72.752-54.424 133.352-121.889 153.156 1.423-4.131 2.191-8.556 2.191-13.146 0-22.056-17.944-40-40-40zm120-120c-22.056 0-40 17.944-40 40 0 11.028-8.972 20-20 20h-80c-22.056 0-40 17.944-40 40s17.944 40 40 40h20c11.028 0 20 8.972 20 20 0 9.153-6.083 17-14.859 19.318-4.99.443-10.038.682-15.141.682-68.799 0-128.182-41.081-154.911-100h24.911c22.056 0 40-17.944 40-40 0-11.028 8.972-20 20-20h80c22.056 0 40-17.944 40-40s-17.944-40-40-40h-60c-11.028 0-20-8.972-20-20s8.972-20 20-20h20c22.056 0 40-17.944 40-40 0-7.142-1.945-13.988-5.384-19.935 88.276 2.365 159.976 72.356 165.082 159.935zm-152.447-158.516c7.412 3.036 12.447 10.389 12.447 18.516 0 11.028-8.972 20-20 20h-20c-22.056 0-40 17.944-40 40s17.944 40 40 40h60c11.028 0 20 8.972 20 20s-8.972 20-20 20h-80c-22.056 0-40 17.944-40 40 0 11.028-8.972 20-20 20h-32.492c-4.876-15.815-7.508-32.606-7.508-50 0-86.13 64.386-157.496 147.553-168.516zm22.588 398.523c-.102-.001-.204 0-.306.001-53.703.001-104.917-18.38-146.707-53.145-4.658-3.874-5.021-10.826-.814-15.035l20.661-20.66c33.682 30.338 78.232 48.832 127.025 48.832 104.086 0 190-84.592 190-190 0-48.793-18.494-93.343-48.832-127.026l20.66-20.66c4.236-4.238 11.191-3.808 15.035.813 41.232 49.563 59.424 112.383 51.225 176.89-13.685 107.656-107.672 199.831-227.947 199.99z"/></g></svg>